<?xml version="1.0" encoding="UTF-8"?>
<svg xmlns="http://www.w3.org/2000/svg" xmlns:xlink="http://www.w3.org/1999/xlink" version="1.1" id="Layer_1" x="0px" y="0px" viewBox="0 0 32 32" style="enable-background:new 0 0 32 32;" xml:space="preserve" width="512" height="512">
<style type="text/css">
	.st0{fill:#ED1C24;}
	.st1{opacity:0.3;enable-background:new    ;}
	.st2{fill:#FFF200;}
</style>
<path class="st0" d="M25,8H7c-1.1,0-2,0.9-2,2v12c0,1.1,0.9,2,2,2h5c0.6,0,1,0.4,1,1h1c0-0.6,0.4-1,1-1h2c0.6,0,1,0.4,1,1h1  c0-0.6,0.4-1,1-1h5c1.1,0,2-0.9,2-2V10C27,8.9,26.1,8,25,8z"/>
<path d="M17,24h-2c-0.6,0-1,0.4-1,1l0,0c0,0.6,0.4,1,1,1h2c0.6,0,1-0.4,1-1l0,0C18,24.4,17.6,24,17,24z"/>
<path class="st1" d="M25,24c1.1,0,2-0.9,2-2V10c0-1.1-0.9-2-2-2h-2c0.1,0.2,4.6,7.7,0,16"/>
<path d="M20,24c-0.6,0-1,0.4-1,1l0,0c0,0.6,0.4,1,1,1h5c2.2,0,4-1.8,4-4V10c0-2.2-1.8-4-4-4H7c-2.2,0-4,1.8-4,4v12c0,2.2,1.8,4,4,4  h5c0.6,0,1-0.4,1-1l0,0c0-0.6-0.4-1-1-1H7c-1.1,0-2-0.9-2-2V10c0-1.1,0.9-2,2-2h16h2c1.1,0,2,0.9,2,2v12c0,1.1-0.9,2-2,2"/>
<polygon class="st2" points="10.11,12.33 11.248,14.635 13.792,15.005 11.951,16.8 12.386,19.334 10.11,18.137 7.834,19.334   8.269,16.8 6.428,15.005 8.972,14.635 "/>
<polygon class="st2" points="14.434,11.567 14.672,12.049 15.203,12.127 14.819,12.502 14.909,13.031 14.434,12.781 13.958,13.031   14.049,12.502 13.664,12.127 14.196,12.049 "/>
<polygon class="st2" points="14.434,19.052 14.672,19.534 15.203,19.612 14.819,19.987 14.909,20.516 14.434,20.266 13.958,20.516   14.049,19.987 13.664,19.612 14.196,19.534 "/>
<polygon class="st2" points="16.729,13.57 16.967,14.052 17.498,14.129 17.114,14.504 17.204,15.034 16.729,14.784 16.253,15.034   16.344,14.504 15.959,14.129 16.491,14.052 "/>
<polygon class="st2" points="16.729,16.555 16.967,17.037 17.498,17.114 17.114,17.489 17.204,18.019 16.729,17.769 16.253,18.019   16.344,17.489 15.959,17.114 16.491,17.037 "/>
</svg>
